solid OpenSCAD_Model
  facet normal -1 0 0
    outer loop
      vertex 0 0 0
      vertex 0 0 1.4
      vertex 0 7.4497 0
    endloop
  endfacet
  facet normal -1 0 0
    outer loop
      vertex 0 7.4497 0
      vertex 0 0 1.4
      vertex 0 7.4497 1.4
    endloop
  endfacet
  facet normal 0 -1 0
    outer loop
      vertex 0 0 1.4
      vertex 0 0 0
      vertex 14.0994 0 0
    endloop
  endfacet
  facet normal 0 -1 0
    outer loop
      vertex 14.0994 0 1.4
      vertex 0 0 1.4
      vertex 14.0994 0 0
    endloop
  endfacet
  facet normal 0 0 -1
    outer loop
      vertex 12.6994 1.4 0
      vertex 14.0994 0 0
      vertex 1.4 1.4 0
    endloop
  endfacet
  facet normal 0 0 -1
    outer loop
      vertex 12.6994 6.0497 0
      vertex 0 7.4497 0
      vertex 14.0994 7.4497 0
    endloop
  endfacet
  facet normal 0 0 -1
    outer loop
      vertex 0 0 0
      vertex 0 7.4497 0
      vertex 1.4 6.0497 0
    endloop
  endfacet
  facet normal 0 0 -1
    outer loop
      vertex 0 0 0
      vertex 1.4 6.0497 0
      vertex 1.4 1.4 0
    endloop
  endfacet
  facet normal 0 0 -1
    outer loop
      vertex 0 0 0
      vertex 1.4 1.4 0
      vertex 14.0994 0 0
    endloop
  endfacet
  facet normal 0 0 -1
    outer loop
      vertex 14.0994 0 0
      vertex 12.6994 1.4 0
      vertex 14.0994 7.4497 0
    endloop
  endfacet
  facet normal 0 0 -1
    outer loop
      vertex 12.6994 1.4 0
      vertex 12.6994 6.0497 0
      vertex 14.0994 7.4497 0
    endloop
  endfacet
  facet normal 0 0 -1
    outer loop
      vertex 1.4 6.0497 0
      vertex 0 7.4497 0
      vertex 12.6994 6.0497 0
    endloop
  endfacet
  facet normal 0 1 0
    outer loop
      vertex 0 7.4497 0
      vertex 0 7.4497 1.4
      vertex 14.0994 7.4497 0
    endloop
  endfacet
  facet normal 0 1 0
    outer loop
      vertex 14.0994 7.4497 0
      vertex 0 7.4497 1.4
      vertex 14.0994 7.4497 1.4
    endloop
  endfacet
  facet normal 0 0 1
    outer loop
      vertex 1.4 1.4 1.4
      vertex 0 0 1.4
      vertex 14.0994 0 1.4
    endloop
  endfacet
  facet normal 0 0 1
    outer loop
      vertex 0 7.4497 1.4
      vertex 0 0 1.4
      vertex 1.4 1.4 1.4
    endloop
  endfacet
  facet normal 0 0 1
    outer loop
      vertex 1.4 6.0497 1.4
      vertex 12.6994 6.0497 1.4
      vertex 0 7.4497 1.4
    endloop
  endfacet
  facet normal 0 0 1
    outer loop
      vertex 0 7.4497 1.4
      vertex 1.4 1.4 1.4
      vertex 1.4 6.0497 1.4
    endloop
  endfacet
  facet normal 0 0 1
    outer loop
      vertex 14.0994 7.4497 1.4
      vertex 12.6994 6.0497 1.4
      vertex 14.0994 0 1.4
    endloop
  endfacet
  facet normal 0 0 1
    outer loop
      vertex 14.0994 7.4497 1.4
      vertex 0 7.4497 1.4
      vertex 12.6994 6.0497 1.4
    endloop
  endfacet
  facet normal 0 0 1
    outer loop
      vertex 12.6994 6.0497 1.4
      vertex 12.6994 1.4 1.4
      vertex 14.0994 0 1.4
    endloop
  endfacet
  facet normal 0 0 1
    outer loop
      vertex 12.6994 1.4 1.4
      vertex 1.4 1.4 1.4
      vertex 14.0994 0 1.4
    endloop
  endfacet
  facet normal 1 0 0
    outer loop
      vertex 14.0994 0 1.4
      vertex 14.0994 0 0
      vertex 14.0994 7.4497 0
    endloop
  endfacet
  facet normal 1 0 0
    outer loop
      vertex 14.0994 7.4497 1.4
      vertex 14.0994 0 1.4
      vertex 14.0994 7.4497 0
    endloop
  endfacet
  facet normal 1 0 0
    outer loop
      vertex 1.4 6.0497 0
      vertex 1.4 6.0497 1.4
      vertex 1.4 1.4 1.4
    endloop
  endfacet
  facet normal 1 0 0
    outer loop
      vertex 1.4 1.4 0
      vertex 1.4 6.0497 0
      vertex 1.4 1.4 1.4
    endloop
  endfacet
  facet normal 0 -1 0
    outer loop
      vertex 12.6994 6.0497 0
      vertex 12.6994 6.0497 1.4
      vertex 1.4 6.0497 1.4
    endloop
  endfacet
  facet normal 0 -1 0
    outer loop
      vertex 1.4 6.0497 0
      vertex 12.6994 6.0497 0
      vertex 1.4 6.0497 1.4
    endloop
  endfacet
  facet normal -1 0 0
    outer loop
      vertex 12.6994 6.0497 1.4
      vertex 12.6994 6.0497 0
      vertex 12.6994 1.4 1.4
    endloop
  endfacet
  facet normal -1 0 0
    outer loop
      vertex 12.6994 1.4 1.4
      vertex 12.6994 6.0497 0
      vertex 12.6994 1.4 0
    endloop
  endfacet
  facet normal 0 1 0
    outer loop
      vertex 12.6994 1.4 1.4
      vertex 12.6994 1.4 0
      vertex 1.4 1.4 1.4
    endloop
  endfacet
  facet normal 0 1 0
    outer loop
      vertex 1.4 1.4 1.4
      vertex 12.6994 1.4 0
      vertex 1.4 1.4 0
    endloop
  endfacet
endsolid OpenSCAD_Model
